
<svg version="1.1" id="Layer_1" xmlns="http://www.w3.org/2000/svg" xmlns:xlink="http://www.w3.org/1999/xlink" x="0px" y="0px"
	 viewBox="0 0 2524.35 4143.46" style="enable-background:new 0 0 2524.35 4143.46;" xml:space="preserve">
<style type="text/css">
	.st0{fill-rule:evenodd;clip-rule:evenodd;}
	.st1{fill:none;stroke:#000000;stroke-width:8;stroke-miterlimit:8;}
	.st2{clip-path:url(#SVGID_2_);fill-rule:evenodd;clip-rule:evenodd;}
	.st3{clip-path:url(#SVGID_2_);fill:none;stroke:#000000;stroke-width:8;stroke-miterlimit:8;}
</style>
<g>
	<path class="st0" d="M1260.84,0.47c347.04,0,643.92,123.8,890.6,371.42c246.69,247.62,370.73,546.02,372.1,895.22
		c0,162.25-36.78,298.09-110.32,407.55c-76.61,111.09-163.44,214.75-259.34,309.64c-143.98,144.9-279.97,285.49-408,421.78
		c-128.03,136.29-166.47,328.49-115.37,576.6l-844.36,2.62l-0.06-72.26c0-257.97,42.31-463.09,126.96-615.35
		c98.22-173.18,221.46-330.91,365.74-468.02c92.72-90.33,180.12-185.97,261.78-286.43c92.13-109.7,138.31-201.68,138.55-275.94
		c0-224.65-193.15-424.59-420.9-423.09c-231.11-1.5-419.96,199.19-420.71,423.09H0.82c0-349.46,123.16-647.87,369.6-895.22
		C616.87,124.72,913.67,0.9,1260.84,0.66V0.47z"/>
	<polygon class="st0" points="791.55,3380.97 1642.67,3380.97 1642.67,4142.67 791.55,4142.67 791.55,3380.97 791.55,3380.97 
		791.55,3380.97 	"/>
	<path class="st0" d="M2058.35,286.2c31.79,26.83,62.96,55.47,93.49,85.93c246.45,248.12,370.47,546.55,372.1,895.28
		c0,162.26-36.78,298.11-110.32,407.57c-76.61,111.09-163.44,214.76-259.35,309.66c-143.98,144.91-279.97,285.51-408,421.8
		c-128.03,136.29-166.47,328.51-115.37,576.63l-844.42,2.62v-72.26c0-257.99,42.31-463.12,126.96-615.39
		c98.22-173.19,221.46-330.93,365.74-468.05c92.72-90.33,180.12-185.98,261.78-286.44c92.13-109.71,138.31-201.69,138.55-275.96
		c0-224.66-193.15-424.61-420.9-423.11c-231.11-1.5-419.96,199.2-420.71,423.11H1.15c0-349.48,123.22-647.91,369.67-895.28
		C617.26,124.95,914.06,1.12,1261.23,0.88l0,0c61.91-0.26,123.76,3.82,185.11,12.17"/>
	<path class="st1" d="M2058.35,286.2c31.79,26.83,62.96,55.47,93.49,85.93c246.45,248.12,370.47,546.55,372.1,895.28
		c0,162.26-36.78,298.11-110.32,407.57c-76.61,111.09-163.44,214.76-259.35,309.66c-143.98,144.91-279.97,285.51-408,421.8
		c-128.03,136.29-166.47,328.51-115.37,576.63l-844.42,2.62v-72.26c0-257.99,42.31-463.12,126.96-615.39
		c98.22-173.19,221.46-330.93,365.74-468.05c92.72-90.33,180.12-185.98,261.78-286.44c92.13-109.71,138.31-201.69,138.55-275.96
		c0-224.66-193.15-424.61-420.9-423.11c-231.11-1.5-419.96,199.2-420.71,423.11H1.15c0-349.48,123.22-647.91,369.67-895.28
		C617.26,124.95,914.06,1.12,1261.23,0.88l0,0c61.91-0.26,123.76,3.82,185.11,12.17"/>
	<g>
		<defs>
			<polygon id="SVGID_1_" points="0,4143.46 2524.35,4143.46 2524.35,0 0,0 0,4143.46 			"/>
		</defs>
		<clipPath id="SVGID_2_">
			<use xlink:href="#SVGID_1_"  style="overflow:visible;"/>
		</clipPath>
		<polyline class="st2" points="1203.86,4143.07 791.95,4143.07 791.95,3381.37 791.95,3381.37 1643.06,3381.37 1643.06,4143.07 		
			"/>
		<polyline class="st3" points="1203.86,4143.07 791.95,4143.07 791.95,3381.37 791.95,3381.37 1643.06,3381.37 1643.06,4143.07 		
			"/>
	</g>
</g>
</svg>
